<?xml version="1.0" encoding="utf-8"?>
<!DOCTYPE svg PUBLIC "-//W3C//DTD SVG 1.1//EN" "http://www.w3.org/Graphics/SVG/1.1/DTD/svg11.dtd">
<svg xmlns="http://www.w3.org/2000/svg"><symbol id="default" viewBox="0 0 32 32">
<title>default</title>
<path class="path1" d="M28.4 1c1.4 0 2.6 1.2 2.6 2.6v24.8c0 1.4-1.2 2.6-2.6 2.6h-24.8c-1.4 0-2.6-1.2-2.6-2.6v-13.2c0-0.1 0.2-14.2 19.4-14.2h8zM28.4 0h-8c-18.7 0-20.4 13.2-20.4 15.2v13.2c0 2 1.6 3.6 3.6 3.6h24.8c2 0 3.6-1.6 3.6-3.6v-24.8c0-2-1.6-3.6-3.6-3.6v0z"></path>
<path class="path2" d="M13.2 26.4l-6.4-9.4 4.4-3.1h0.1l-0.1-0.4-4.7 3.4h-0.1l6.7 9.9 0.1 0.1 5.4-3.9 0.2-0.1-0.8 0.2z"></path>
<path class="path3" d="M12.3 23.3l0.6-2.1h0.1l-0.6-2.3c-0.1 0.1-0.2 0.2-0.3 0.3-0.5 0.4-1.2 0.2-1.6-0.3-0.3-0.5-0.2-1.2 0.3-1.6 0.3-0.2 0.8-0.2 1.1-0.1l-0.6-2.7-3.6 2.5 4.5 6.7 1.1-0.8-0.1-0.4-0.9 0.8z"></path>
<path class="path4" d="M23.3 6v0l-12.8 3 3.5 14.7 12.7-3.1-3.4-14.6zM23 6.3l3.4 14.1-12.2 2.9-3.4-14 12.2-3z"></path>
<path class="path5" d="M12.3 10l2.2 9.4 9.8-2.4-2.2-9.4-9.8 2.4zM15.7 11.6c0.7-0.2 1.4 0.3 1.6 1s-0.3 1.5-1 1.6c-0.7 0.2-1.4-0.3-1.6-1s0.2-1.4 1-1.6zM23.8 16.7l-9 2.2 1.5-2.1 1.1 0.6 3-4.1 1.7 0.9 0.8-1 0.9 3.5z"></path>
</symbol></svg>
